<svg xmlns="http://www.w3.org/2000/svg" viewBox="0 0 1000 520" width="1000" height="520" font-family="'Hiragino Sans','Yu Gothic','Meiryo','Noto Sans JP',sans-serif">
  <rect width="1000" height="520" rx="14" fill="#f8fafc" stroke="#cbd5e1" stroke-width="2"/>
  <rect x="0" y="0" width="1000" height="80" rx="14" fill="#0b3d2e"/>
  <rect x="0" y="60" width="1000" height="20" fill="#0b3d2e"/>
  <text x="40" y="50" fill="#ffffff" font-size="28" font-weight="800">第1ラウンド終了時 リーダーボード</text>
  <text x="960" y="50" text-anchor="end" fill="#ffd54a" font-size="20" font-weight="700">2026.04.30</text>
  <g transform="translate(40,110)">
    <rect width="920" height="50" fill="#e2e8f0" rx="6"/>
    <text x="40"  y="32" fill="#334155" font-size="20" font-weight="700">順位</text>
    <text x="160" y="32" fill="#334155" font-size="20" font-weight="700">選手名</text>
    <text x="560" y="32" fill="#334155" font-size="20" font-weight="700">スコア</text>
    <text x="760" y="32" fill="#334155" font-size="20" font-weight="700">トータル</text>
  </g>
  <g transform="translate(40,180)">
    <rect width="920" height="80" fill="#fff7d6" rx="8" stroke="#facc15" stroke-width="2"/>
    <text x="40"  y="52" fill="#b45309" font-size="34" font-weight="800">1</text>
    <text x="160" y="52" fill="#0f172a" font-size="28" font-weight="700">岡山 絵里</text>
    <text x="560" y="52" fill="#0f172a" font-size="26">63 (-9)</text>
    <text x="760" y="52" fill="#16a34a" font-size="32" font-weight="800">-9</text>
  </g>
  <g transform="translate(40,275)">
    <rect width="920" height="70" fill="#ffffff" rx="8" stroke="#e2e8f0" stroke-width="2"/>
    <text x="40"  y="46" fill="#334155" font-size="28" font-weight="700">T2</text>
    <text x="160" y="46" fill="#0f172a" font-size="24" font-weight="600">松原 柊亜</text>
    <text x="560" y="46" fill="#0f172a" font-size="22">65 (-7)</text>
    <text x="760" y="46" fill="#16a34a" font-size="26" font-weight="700">-7</text>
  </g>
  <g transform="translate(40,360)">
    <rect width="920" height="70" fill="#ffffff" rx="8" stroke="#e2e8f0" stroke-width="2"/>
    <text x="40"  y="46" fill="#334155" font-size="28" font-weight="700">T2</text>
    <text x="160" y="46" fill="#0f172a" font-size="24" font-weight="600">菅沼 菜々</text>
    <text x="560" y="46" fill="#0f172a" font-size="22">65 (-7)</text>
    <text x="760" y="46" fill="#16a34a" font-size="26" font-weight="700">-7</text>
  </g>
  <text x="40" y="480" fill="#64748b" font-size="16">※ 浜野ゴルフクラブ／パー72／第1ラウンド終了時点</text>
</svg>
