<svg xmlns="http://www.w3.org/2000/svg" viewBox="0 0 1200 360" width="1200" height="360" font-family="'Hiragino Sans','Yu Gothic','Meiryo','Noto Sans JP',sans-serif">
  <defs>
    <linearGradient id="bg" x1="0" y1="0" x2="1" y2="1">
      <stop offset="0%" stop-color="#0b3d2e"/>
      <stop offset="60%" stop-color="#155a3f"/>
      <stop offset="100%" stop-color="#1e7a4f"/>
    </linearGradient>
    <linearGradient id="rain" x1="0" y1="0" x2="0" y2="1">
      <stop offset="0%" stop-color="#9bd2ff" stop-opacity="0.7"/>
      <stop offset="100%" stop-color="#9bd2ff" stop-opacity="0"/>
    </linearGradient>
  </defs>
  <rect width="1200" height="360" fill="url(#bg)"/>
  <g stroke="url(#rain)" stroke-width="2" opacity="0.55">
    <line x1="40" y1="0" x2="10" y2="120"/>
    <line x1="120" y1="0" x2="90" y2="140"/>
    <line x1="220" y1="0" x2="190" y2="160"/>
    <line x1="320" y1="0" x2="290" y2="140"/>
    <line x1="420" y1="0" x2="390" y2="160"/>
    <line x1="540" y1="0" x2="510" y2="140"/>
    <line x1="660" y1="0" x2="630" y2="160"/>
    <line x1="780" y1="0" x2="750" y2="130"/>
    <line x1="900" y1="0" x2="870" y2="150"/>
    <line x1="1020" y1="0" x2="990" y2="140"/>
    <line x1="1140" y1="0" x2="1110" y2="160"/>
  </g>
  <path d="M0,300 C200,260 400,310 600,280 C800,250 1000,300 1200,270 L1200,360 L0,360 Z" fill="#0a3025" opacity="0.7"/>
  <path d="M0,330 C300,300 600,340 900,310 C1050,295 1150,320 1200,310 L1200,360 L0,360 Z" fill="#06251c"/>
  <g transform="translate(1020,180)">
    <line x1="0" y1="0" x2="0" y2="120" stroke="#fff" stroke-width="3"/>
    <polygon points="0,0 90,18 0,36" fill="#e63946"/>
    <circle cx="0" cy="120" r="10" fill="#ffffff"/>
  </g>
  <g transform="translate(60,60)">
    <rect width="160" height="46" rx="6" fill="#e63946"/>
    <text x="80" y="32" text-anchor="middle" fill="#ffffff" font-size="24" font-weight="700" letter-spacing="2">速報</text>
  </g>
  <text x="60" y="160" fill="#ffffff" font-size="46" font-weight="800">NTTドコモビジネスレディス</text>
  <text x="60" y="220" fill="#ffd54a" font-size="38" font-weight="800">第2日が中止　悪天候で54ホール短縮へ</text>
  <text x="60" y="270" fill="#cfe9d8" font-size="22">2026年5月1日 / 千葉・浜野ゴルフクラブ / JLPGAツアー第8戦</text>
</svg>
